<?xml version="1.0" standalone="no"?>
<!DOCTYPE svg PUBLIC "-//W3C//DTD SVG 20010904//EN"
 "http://www.w3.org/TR/2001/REC-SVG-20010904/DTD/svg10.dtd">
<svg version="1.0" xmlns="http://www.w3.org/2000/svg"
 width="840.000000pt" height="859.000000pt" viewBox="0 0 840.000000 859.000000"
 preserveAspectRatio="xMidYMid meet">

<g transform="translate(0.000000,859.000000) scale(0.100000,-0.100000)"
fill="#000000" stroke="none">
<path d="M3895 7754 c-71 -7 -179 -23 -240 -34 -60 -11 -123 -23 -140 -26 -70
-13 -388 -105 -430 -125 -11 -5 -45 -18 -75 -28 -216 -76 -537 -248 -760 -405
-362 -256 -694 -599 -927 -958 -115 -178 -299 -534 -328 -638 -4 -14 -15 -43
-25 -65 -40 -92 -119 -372 -145 -510 -9 -49 -20 -108 -26 -130 -27 -114 -52
-506 -44 -695 21 -464 107 -855 273 -1245 28 -68 143 -305 169 -350 43 -75 82
-137 140 -225 89 -133 91 -137 152 -215 408 -521 944 -915 1559 -1145 89 -33
169 -60 177 -60 8 0 32 -6 52 -14 144 -52 400 -101 728 -137 119 -13 500 -7
615 10 36 5 117 16 181 25 230 31 562 122 789 216 831 344 1500 986 1871 1794
151 328 248 676 295 1051 28 222 26 619 -4 850 -35 268 -95 522 -173 735 -17
47 -38 103 -45 125 -18 50 -18 50 -99 220 -379 792 -1050 1421 -1865 1747
-299 120 -628 200 -950 233 -187 18 -541 18 -725 -1z m542 -134 c72 -5 189
-16 260 -25 117 -15 176 -26 378 -70 75 -17 294 -84 310 -95 6 -4 24 -10 40
-14 86 -21 391 -166 560 -267 80 -47 291 -193 346 -238 31 -25 74 -59 95 -76
21 -16 122 -113 224 -215 222 -222 307 -330 505 -640 31 -48 117 -207 138
-255 10 -22 23 -49 29 -59 21 -40 71 -166 124 -316 75 -213 113 -368 154 -640
35 -223 37 -674 5 -870 -9 -52 -22 -135 -29 -185 -22 -141 -78 -351 -143 -530
-122 -337 -286 -636 -500 -915 -190 -249 -463 -511 -723 -696 -148 -105 -368
-236 -492 -292 -178 -82 -227 -102 -240 -102 -8 0 -18 -4 -23 -9 -9 -7 -259
-89 -325 -106 -14 -3 -49 -12 -77 -20 -137 -38 -407 -76 -600 -84 -193 -8
-507 1 -633 19 -101 15 -363 68 -425 86 -202 61 -271 85 -450 157 -91 37 -361
179 -463 244 -342 219 -655 502 -872 788 -80 106 -219 310 -227 333 -3 10 -12
24 -18 32 -20 24 -119 216 -165 320 -23 52 -50 113 -60 135 -32 71 -107 307
-134 420 -14 61 -30 126 -36 145 -14 53 -38 216 -56 390 -31 294 -4 712 67
1015 68 289 158 539 280 781 78 154 96 184 215 364 280 423 691 805 1129 1052
509 286 1038 430 1640 446 33 1 119 -3 192 -8z"/>
<path d="M3900 7245 c-439 -69 -669 -141 -1011 -315 -485 -246 -909 -643
-1196 -1117 -71 -118 -174 -324 -221 -443 -57 -145 -132 -396 -151 -505 -55
-318 -54 -310 -54 -610 0 -283 0 -295 32 -480 47 -272 123 -531 210 -720 164
-353 348 -630 575 -865 466 -481 1014 -777 1656 -894 550 -100 1188 -30 1685
186 140 61 182 81 290 141 389 215 726 513 987 872 120 165 255 401 322 565
15 36 33 79 41 95 40 90 114 339 144 485 48 234 58 345 58 625 0 310 -26 512
-102 790 -194 707 -639 1316 -1255 1720 -160 104 -247 151 -475 255 -70 32
-279 105 -365 127 -30 8 -71 18 -90 24 -19 5 -109 23 -200 41 -159 30 -176 31
-480 34 -229 2 -338 -1 -400 -11z m-294 -1625 l659 -660 662 662 663 663 290
-290 c160 -160 289 -296 288 -302 -2 -7 -298 -308 -658 -668 l-654 -656 657
-657 c361 -361 657 -662 657 -667 0 -6 -131 -141 -290 -300 l-290 -290 -658
658 c-361 361 -661 657 -666 657 -4 0 -303 -295 -662 -655 -360 -360 -658
-655 -662 -655 -11 0 -582 574 -582 585 0 5 251 261 557 567 l558 558 192 0
c106 0 193 3 193 8 0 4 -337 345 -750 757 -412 412 -750 754 -750 760 0 10
570 585 581 585 3 0 302 -297 665 -660z"/>
</g>
</svg>
