<svg version="1.1" xmlns="http://www.w3.org/2000/svg" xmlns:xlink="http://www.w3.org/1999/xlink" width="840.000000pt" height="859.000000pt" viewBox="0,0,250.32813,256"><g fill="#fa5252" fill-rule="nonzero" stroke="none" stroke-width="1" stroke-linecap="butt" stroke-linejoin="miter" stroke-miterlimit="10" stroke-dasharray="" stroke-dashoffset="0" font-family="none" font-weight="none" font-size="none" text-anchor="none" style="mix-blend-mode: normal"><g transform="translate(-1.93134,-1.18693) scale(0.29802,0.29802)"><g transform="translate(0,859) scale(0.1,-0.1)"><path d="M3895,7754c-71,-7 -179,-23 -240,-34c-60,-11 -123,-23 -140,-26c-70,-13 -388,-105 -430,-125c-11,-5 -45,-18 -75,-28c-216,-76 -537,-248 -760,-405c-362,-256 -694,-599 -927,-958c-115,-178 -299,-534 -328,-638c-4,-14 -15,-43 -25,-65c-40,-92 -119,-372 -145,-510c-9,-49 -20,-108 -26,-130c-27,-114 -52,-506 -44,-695c21,-464 107,-855 273,-1245c28,-68 143,-305 169,-350c43,-75 82,-137 140,-225c89,-133 91,-137 152,-215c408,-521 944,-915 1559,-1145c89,-33 169,-60 177,-60c8,0 32,-6 52,-14c144,-52 400,-101 728,-137c119,-13 500,-7 615,10c36,5 117,16 181,25c230,31 562,122 789,216c831,344 1500,986 1871,1794c151,328 248,676 295,1051c28,222 26,619 -4,850c-35,268 -95,522 -173,735c-17,47 -38,103 -45,125c-18,50 -18,50 -99,220c-379,792 -1050,1421 -1865,1747c-299,120 -628,200 -950,233c-187,18 -541,18 -725,-1zM4437,7620c72,-5 189,-16 260,-25c117,-15 176,-26 378,-70c75,-17 294,-84 310,-95c6,-4 24,-10 40,-14c86,-21 391,-166 560,-267c80,-47 291,-193 346,-238c31,-25 74,-59 95,-76c21,-16 122,-113 224,-215c222,-222 307,-330 505,-640c31,-48 117,-207 138,-255c10,-22 23,-49 29,-59c21,-40 71,-166 124,-316c75,-213 113,-368 154,-640c35,-223 37,-674 5,-870c-9,-52 -22,-135 -29,-185c-22,-141 -78,-351 -143,-530c-122,-337 -286,-636 -500,-915c-190,-249 -463,-511 -723,-696c-148,-105 -368,-236 -492,-292c-178,-82 -227,-102 -240,-102c-8,0 -18,-4 -23,-9c-9,-7 -259,-89 -325,-106c-14,-3 -49,-12 -77,-20c-137,-38 -407,-76 -600,-84c-193,-8 -507,1 -633,19c-101,15 -363,68 -425,86c-202,61 -271,85 -450,157c-91,37 -361,179 -463,244c-342,219 -655,502 -872,788c-80,106 -219,310 -227,333c-3,10 -12,24 -18,32c-20,24 -119,216 -165,320c-23,52 -50,113 -60,135c-32,71 -107,307 -134,420c-14,61 -30,126 -36,145c-14,53 -38,216 -56,390c-31,294 -4,712 67,1015c68,289 158,539 280,781c78,154 96,184 215,364c280,423 691,805 1129,1052c509,286 1038,430 1640,446c33,1 119,-3 192,-8z"></path><path d="M3900,7245c-439,-69 -669,-141 -1011,-315c-485,-246 -909,-643 -1196,-1117c-71,-118 -174,-324 -221,-443c-57,-145 -132,-396 -151,-505c-55,-318 -54,-310 -54,-610c0,-283 0,-295 32,-480c47,-272 123,-531 210,-720c164,-353 348,-630 575,-865c466,-481 1014,-777 1656,-894c550,-100 1188,-30 1685,186c140,61 182,81 290,141c389,215 726,513 987,872c120,165 255,401 322,565c15,36 33,79 41,95c40,90 114,339 144,485c48,234 58,345 58,625c0,310 -26,512 -102,790c-194,707 -639,1316 -1255,1720c-160,104 -247,151 -475,255c-70,32 -279,105 -365,127c-30,8 -71,18 -90,24c-19,5 -109,23 -200,41c-159,30 -176,31 -480,34c-229,2 -338,-1 -400,-11zM3606,5620l659,-660l662,662l663,663l290,-290c160,-160 289,-296 288,-302c-2,-7 -298,-308 -658,-668l-654,-656l657,-657c361,-361 657,-662 657,-667c0,-6 -131,-141 -290,-300l-290,-290l-658,658c-361,361 -661,657 -666,657c-4,0 -303,-295 -662,-655c-360,-360 -658,-655 -662,-655c-11,0 -582,574 -582,585c0,5 251,261 557,567l558,558h192c106,0 193,3 193,8c0,4 -337,345 -750,757c-412,412 -750,754 -750,760c0,10 570,585 581,585c3,0 302,-297 665,-660z"></path></g></g></g></svg>