<?xml version="1.0" encoding="UTF-8"?>
<svg xmlns="http://www.w3.org/2000/svg" xmlns:xlink="http://www.w3.org/1999/xlink" width="32px" height="32px" viewBox="0 0 32 32" version="1.1">
<g id="surface1">
<path style=" stroke:none;fill-rule:nonzero;fill:rgb(94.901961%,95.294118%,93.333333%);fill-opacity:1;" d="M 16 16 C 18.945312 16 21.332031 13.613281 21.332031 10.667969 C 21.332031 7.71875 18.945312 5.332031 16 5.332031 C 13.054688 5.332031 10.667969 7.71875 10.667969 10.667969 C 10.667969 13.613281 13.054688 16 16 16 Z M 16 18.667969 C 12.441406 18.667969 5.332031 20.453125 5.332031 24 L 5.332031 25.332031 C 5.332031 26.066406 5.933594 26.667969 6.667969 26.667969 L 25.332031 26.667969 C 26.066406 26.667969 26.667969 26.066406 26.667969 25.332031 L 26.667969 24 C 26.667969 20.453125 19.558594 18.667969 16 18.667969 Z M 16 18.667969 "/>
</g>
</svg>
